<svg xmlns="http://www.w3.org/2000/svg" viewBox="0 0 100 100"><g><g transform="translate(-9 -28)"><g transform="translate(9 28)"><g><path d="M50 92.8L2.8 37.9l20.4-27.8L50 7.2l26.8 2.9 20.4 27.8z"/></g><g transform="translate(0 160)"><path fill="currentColor" d="M50-67.2L2.8-122.1h94.4z"/></g><g transform="translate(100 160)"><path d="M-50-67.2l-28.1-54.9h56.2z"/></g><g transform="translate(100)"><path fill="currentColor" d="M-50 7.2l-28.1 30.7h56.2z"/></g><g transform="translate(0 15)"><path d="M23.2-4.9l-10.5 14-9.9 13.8h19.3z"/></g><g transform="matrix(-1 0 0 1 494 15)"><path d="M417.2-4.9l-10.5 14-9.9 13.8h19.3z"/></g><g transform="translate(100)"><path d="M-76.8 10.1l-1.3 27.8L-50 7.2z"/></g><g transform="translate(247)"><path d="M-170.2 10.1l1.3 27.8L-197 7.2z"/></g></g></g></g></svg>