<svg fill="currentColor" xmlns="http://www.w3.org/2000/svg" viewBox="0 0 72 96"><g fill="none" fill-rule="nonzero"><g fill="currentColor"><path d="M0 2v92c0 1.1.9 2 2 2h68c1.1 0 2-.9 2-2V28H50c-1.1 0-2-.9-2-2V0H2C.9 0 0 .9 0 2Z"/><path d="M71.9 24c-.1-.4-.2-.7-.4-1L52 1.2V24h19.9Z"/></g><path fill="#fff" d="M6 41h60v49H6z"/><g fill="#fff"><path d="M6 13.6c0-2.2.6-4 1.7-5.4 1.2-1.4 2.7-2.1 4.7-2.1 1.5 0 2.7.4 3.6 1.2l-1.4 2.8c-.2-.3-.5-.5-.9-.6-.4-.2-.8-.3-1.2-.3-1 0-1.8.4-2.4 1.2-.6.8-.8 1.8-.8 3s.3 2.3.9 3.1c.6.9 1.3 1.3 2.3 1.3.7 0 1.5-.3 2.3-1l1.4 2.8c-1.1.9-2.4 1.3-3.9 1.3-1.9 0-3.5-.7-4.6-2C6.6 17.5 6 15.7 6 13.6ZM22.3 20.7H19V6.4h4.5c.6 0 1.2.1 1.9.4.7.3 1.3.9 1.8 1.6.4.7.6 1.5.6 2.4 0 .8-.2 1.6-.5 2.3-.4.7-.8 1.3-1.4 1.7.1.1.3.4.5.9l2.3 5H25l-2-4.8h-.8v4.8h.1Zm0-11.4V13h.6c.5 0 .8-.2 1.1-.5.3-.3.4-.8.4-1.4 0-.7-.2-1.2-.6-1.5-.3-.2-.5-.3-.9-.3h-.6ZM33.8 20.7h-3.5l3.3-7.1-3.4-7.2h3.6l1.1 2.9.6 1.8c.1-.5.3-1.1.6-1.8l1.2-2.9h3.6l-3.4 7.2 3.3 7.1h-3.5l-1.1-3-.7-1.7c-.1.3-.3.9-.6 1.7l-1.1 3Z"/></g><g fill="currentColor"><path d="M36.1 84c-.2-.2-.1-.4 0-.7 1.7-2.9 3.3-5.7 4.9-8.6 1-1.7 2-3.4 2.9-5.1.8-1.4 1.1-3 1-4.6-.1-2-.8-3.7-2-5.3-.2-.2-.3-.4-.5-.5-.1-.2-.4-.3-.2-.6.1-.2.3-.2.5-.2h9.8c.5 0 .5 0 .7.5.9 2.4 1.3 4.8 1.1 7.3-.2 4.5-1.9 8.4-5 11.8-2.2 2.4-4.8 4-7.9 5-1.4.4-2.8.7-4.2.8-.1 0-.2 0-.3.1-.1.1-.5.1-.8.1Z"/><path d="M17.5 64.3c0-.3.1-.6.1-.9.3-2.4 1-4.7 2.2-6.8 0-.1.1-.1.1-.2.2-.2.4-.2.5 0 .1.1.1.1.1.2 2.4 4.2 4.8 8.3 7.2 12.5.4.7.8 1.4 1.3 2 1.7 2 3.8 3.1 6.4 3.3.9.1 1.8 0 2.7-.2.1 0 .2-.1.3-.1.3 0 .4.2.3.4 0 .1-.1.2-.1.3-1.7 2.9-3.3 5.7-5 8.6-.2.4-.3.4-.7.3-2.1-.3-4-1-5.9-2-3-1.6-5.4-3.9-7.1-6.9-1.3-2.1-2-4.4-2.4-6.9 0-.3-.1-.7-.1-1 0-.1 0-.2-.1-.3.2-.7.2-1.5.2-2.3Z"/><path d="M43.3 56.5h-7.9c-2.5.1-4.5 1.2-6.2 3-.9 1-1.5 2.2-1.9 3.5v.1c-.1.2-.1.4-.3.4-.2 0-.3-.2-.4-.3-1.7-2.9-3.3-5.8-5-8.7-.2-.3-.2-.4.1-.7 2.7-3.3 6.1-5.4 10.2-6.4 2-.5 4.1-.6 6.2-.3 3.6.4 6.8 1.7 9.6 4 1.7 1.3 3.1 2.9 4.2 4.8 0 .1.1.1.1.2.1.3 0 .5-.3.5h-.3c-2.8-.1-5.4-.1-8.1-.1Z"/><path d="M42.9 65.5c0 3.8-3 6.9-6.9 6.9-3.8 0-6.9-3-6.9-6.9 0-3.8 3-6.9 6.9-6.9 3.8 0 6.9 3 6.9 6.9Z"/></g></g></svg>
